<svg xmlns="http://www.w3.org/2000/svg" viewBox="0 0 90.62 58.92"><defs><style>.cls-1{fill:#c93;}.cls-1,.cls-2{stroke:#000;stroke-miterlimit:22.93;stroke-width:0.48px;fill-rule:evenodd;}.cls-2{fill:#963;}</style></defs><title>1</title><g id="Слой_2" data-name="Слой 2"><g id="_1" data-name="1"><path class="cls-1" d="M.24.24H90.38V58.68H.24V.24ZM11.38,10V48.9H79.61V10Z"/><path class="cls-2" d="M7.61,7.85H83.42V51.06H7.61V7.85ZM55,35.51a4.26,4.26,0,1,0,4.26,4.26A4.25,4.25,0,0,0,55,35.51Zm-19.62,0a4.26,4.26,0,1,0,4.26,4.26,4.26,4.26,0,0,0-4.26-4.26ZM55,16.34a4.26,4.26,0,1,0,4.26,4.26A4.26,4.26,0,0,0,55,16.34Zm-19.62,0a4.26,4.26,0,1,0,4.26,4.26A4.26,4.26,0,0,0,35.38,16.34Z"/></g></g></svg>