<svg xmlns="http://www.w3.org/2000/svg" viewBox="0 0 118.5 116.02"><defs><style>.cls-1{fill:#fff;}.cls-1,.cls-2{stroke:#2b2a29;stroke-linecap:round;stroke-linejoin:round;stroke-width:0.47px;fill-rule:evenodd;}.cls-2{fill:none;}</style></defs><title>1.2</title><g id="Слой_2" data-name="Слой 2"><g id="_1" data-name="1"><path class="cls-1" d="M8.81,86.28a48.16,48.16,0,0,0,25,16.09,119.28,119.28,0,0,0,14.44,2.77,4.39,4.39,0,0,1-.33,3.27c-.86,2.22-1.11,3.88-.49,5.24s7,3,10.35,1.66,4-3.27,4.07-6.22a20.53,20.53,0,0,0-.27-3.26c1.76-.06,3.42-.19,4.94-.39a5.16,5.16,0,0,0,.08,3.52c.61,1.36,7,3,10.35,1.67s4-3.27,4.07-6.23a20.31,20.31,0,0,0-.27-3.25c2.2-.76,3.91-1.06,5.58-.28,3.45,1.6,22.07,5.3,29.1-4.81s-.61-15.91-6.53-16.77-9,4.81-7.16,4.19,5.55-1.11,8.14,1,.87,8.75-5.42,9.74S89.93,83.85,86.23,79,73.65,61.16,56,61.4,29.37,72.5,29.37,72.5s-.78,1-2.2-.15c-1-.79-5.64-4.62-8.37-12.79-3.71-11.15,1-24.44,3.26-29.07.9-1.82.37-4,0-6C20.49,15,17.41,11,9.4,26.26S-6.14,64.12,8.81,86.28Z"/><path class="cls-1" d="M8.81,86.28a48.16,48.16,0,0,0,25,16.09,119.28,119.28,0,0,0,14.44,2.77c-.19-.63-.5-1.38-.94-2.46a5.68,5.68,0,0,1-.27-2.78c-11-2-22.09-7.51-28.91-17.9C7.79,66.21,14.33,45.37,14.33,34.64c0-7.13-5-4.67-8.93.15-5.95,14.54-9,33.15,3.41,51.49ZM61.6,105.83c1.76-.06,3.42-.19,4.94-.39a16.4,16.4,0,0,1,.57-1.72,4.34,4.34,0,0,0,.18-3.71c-1.16.17-2.41.33-3.76.49-1,.11-1.92.19-2.91.25.26,1.34.69,3.23,1,5.08Zm19.17-4.68c2.2-.76,3.91-1.06,5.58-.28,2.7,1.25,14.67,3.79,23.12,0,.19-.63-1.13-.93-4.58-.29-7,1.3-17.32-2.89-18.8-3.57-2.12-1-2.79-1.54-3.69-1.2-.33.13-1,.57-2.43,1.17C80.22,98.2,80.54,99.69,80.77,101.15Z"/><path class="cls-2" d="M47.08,99.78s-.34-4.35,3-6.72m29.89,3.82a12.92,12.92,0,0,0-.31-2.06M67.3,99.93s-1.21-4,.18-6.68m-6.87,7.36A19.08,19.08,0,0,1,60,97.1"/><path class="cls-1" d="M18,43.38c1.41.66,3.75,2,2.65,3.19a6.25,6.25,0,0,1-3.22,1.86,43.07,43.07,0,0,1,.57-5Zm76,45.09c.74-.21,2.09-.49,2.35.09s-.17,1.22-.53,1.66c-.62-.55-1.22-1.14-1.82-1.75ZM19,38.86c.85.62,2.1,1.72,1.32,2.48a4,4,0,0,1-2.13,1.08c.24-1.24.51-2.43.81-3.56ZM90.91,85c.51-.17,2.84-.89,3.21,0s-.77,2.14-1.09,2.44h0c-.73-.79-1.44-1.6-2.11-2.41Zm-3.58-4.49c.83-.24,4-1.08,4.52.1.54,1.37-1.2,3-1.67,3.43l-.05,0c-1-1.27-2-2.49-2.8-3.56Zm-3.79-4.92c1.1,1.36,2,2.57,2.69,3.48l.56.74c.64-.59,2.55-2.47,1.92-4-.53-1.32-3.92-.53-5.17-.18Zm-4.3-4.72c1.19-.45,5-1.73,5.69-.31.85,1.69-1.2,4-1.77,4.57a49,49,0,0,0-3.92-4.26Zm-4.86-4A38.6,38.6,0,0,1,79,70.57c.61-.79,2.2-3,1.28-4.56s-5,.48-5.86.87Zm-5.58-3c1-.81,4.38-3.55,5.61-2.37,1.44,1.38.2,4.39-.14,5.17a.27.27,0,0,1-.09.12,31.64,31.64,0,0,0-5.38-2.92Zm-6.6-2a30.83,30.83,0,0,1,6.32,1.83h0c.2-.89.89-4.31-.91-5.47-1.55-1-4.58,2.61-5.41,3.65Zm-13.82.32c.39-1.43,1.68-5.62,3.42-5.35,2.08.33,2.83,3.65,3,4.58a40.71,40.71,0,0,0-6.44.77Zm6.53-.78c.65-1.28,3.06-5.69,4.89-5,2,.79,2.14,4.24,2.13,5.4A32,32,0,0,0,56,61.4l-1.1,0ZM42.17,64c.15-1.34.74-5.61,2.45-5.61,2,0,3.18,3,3.5,3.85A38.31,38.31,0,0,0,42.17,64ZM36.8,66.62c0-1-.17-5.25,1.43-5.48,1.8-.27,3.28,2.3,3.66,3a37.18,37.18,0,0,0-5.09,2.48Zm-4.69,3.27c-.28-1.42-.77-4.79.6-5.23,1.53-.49,3.17,1.23,3.88,2.08a33.8,33.8,0,0,0-4.48,3.15Zm-6.54,1a17.83,17.83,0,0,0,1.6,1.43c1.42,1.11,2.2.15,2.2.15a21.39,21.39,0,0,1,2.24-2.19,6.87,6.87,0,0,0-2.13-3.69c-1.35-1-3.07,2.4-3.91,4.3Zm-4-5.16c1.09-.4,5.34-1.87,5.54-.26.22,1.79-1.55,4.18-2.21,4.77a27.32,27.32,0,0,1-3.33-4.51Zm-2.53-5.42a31.22,31.22,0,0,0,2.31,5c.9-.6,2.84-2.38,3-4s-4-1.16-5.32-1Zm-1.4-5.8c1.43-.07,5.86-.16,5,1.73A7.26,7.26,0,0,1,19,60h0l-.15-.44a26.37,26.37,0,0,1-1.12-5Zm-.22-5.83c1.46.28,5.66,1.23,4.43,2.85a7.45,7.45,0,0,1-4.25,2.7A33.3,33.3,0,0,1,17.46,48.71Z"/><path class="cls-1" d="M37.4,15.34s7.58-1.11,7.4,4.87-9.92,14-13.31,14.42-12.88.31-16.64-6.84S14.6,17,14.6,17s-.25-9.19,8.5-11.1S37.22,10.78,37.4,15.34Z"/><path class="cls-1" d="M44.58,21.69c-1.49,5.74-10,12.55-13.09,12.94-3.39.43-12.88.31-16.64-6.84-.19-.36-.37-.72-.52-1.06.1-3.21,4.09-4.53,6.8-2.08,3.15,2.83,7.46-1.23,16.27-4.93C42.33,17.65,44.29,19.26,44.58,21.69Z"/><path class="cls-2" d="M18.54,25.57s1.36,9.25,13.19,9"/><path class="cls-1" d="M35.38,15.65c.36-6.19-5.32-4.86-4,1A30.33,30.33,0,0,1,35.38,15.65Z"/><path class="cls-1" d="M26.12,19.13c.45-7.16-5.81-7.75-6-1.14C20.08,18,22.92,23.42,26.12,19.13Z"/><path class="cls-1" d="M21.6,19.92a2.6,2.6,0,0,0,3,.61c.36-.94,0-5.25-1.48-5.25-.83,0-1.5,2-1.5,4.55Z"/><path class="cls-1" d="M32.24,16.33a22.87,22.87,0,0,1,2.48-.65C34.21,11.58,32.1,12.91,32.24,16.33Z"/><path class="cls-1" d="M47.47,109.77a5.48,5.48,0,0,0,0,3.88c.53,1.17,5.38,2.52,8.84,2-.28-2.15-1-5.06-2.28-5a1.72,1.72,0,0,0-1.57,1.6,11.15,11.15,0,0,0-.06-1.17c-.06-.43-.55-2-1.72-1.69s-1.33,2-1.33,2S48.65,109.23,47.47,109.77Z"/><path class="cls-1" d="M66.64,105.09a5.45,5.45,0,0,0,0,3.87c.53,1.17,5.38,2.53,8.83,2-.27-2.15-1-5-2.27-5a1.72,1.72,0,0,0-1.57,1.61,11.15,11.15,0,0,0-.06-1.17c-.06-.44-.56-2-1.73-1.7s-1.32,2-1.32,2S67.82,104.55,66.64,105.09Z"/><path class="cls-1" d="M31.69,101.76a6.17,6.17,0,0,1-.51,2c-.86,2.22-1.11,3.89-.49,5.24s7,3,10.35,1.67,4-3.14,4.06-5.94c-3.58-.56-7.35-1.32-11.27-2.32C33.1,102.18,32.39,102,31.69,101.76Z"/><path class="cls-1" d="M30.71,105.09a5.4,5.4,0,0,0,0,3.87c.34.76,2.5,1.6,4.92,2,0-.5.34-4.37-1.46-5a1.24,1.24,0,0,0-1.58.79S31.89,104.55,30.71,105.09Z"/><path class="cls-1" d="M26.35,5.58c-1-2-3.15-6-4.48-5.25S20.12,5.45,20.05,7A11.74,11.74,0,0,1,23.1,5.91a14,14,0,0,1,3.25-.33ZM19.63,7.27C17.82,6,16.27,5.54,15.54,6.5s-.35,3.15.36,4.94a9.91,9.91,0,0,1,3.73-4.17Zm12-.29c-.3-1.83-1-5-2.09-4.68-.88.25-1.74,1.93-2.31,3.34A11.4,11.4,0,0,1,31.67,7Z"/><path class="cls-2" d="M37.43,15.28s-6.54.58-11.32,3.94"/><path class="cls-1" d="M33,20.58c-1.91.92.31-2.16,2.28-2.16S34.94,19.66,33,20.58Z"/><path class="cls-1" d="M55.74,65.66c1.64,0,3,1,3,2.13s-1.33,2.12-3,2.12-3-1-3-2.12S54.09,65.66,55.74,65.66Z"/><path class="cls-1" d="M47.67,75.22a2.23,2.23,0,1,1-2.34,2.23A2.28,2.28,0,0,1,47.67,75.22Z"/><path class="cls-1" d="M57.86,73.94a1.93,1.93,0,1,1-1.7,1.91A1.82,1.82,0,0,1,57.86,73.94Z"/><path class="cls-1" d="M69.75,78.19a2.66,2.66,0,1,1-2.55,2.65A2.6,2.6,0,0,1,69.75,78.19Z"/><path class="cls-1" d="M45.54,62.91a37.19,37.19,0,0,0-11.4,5.41,6.43,6.43,0,0,0,5.67,3.29,6.22,6.22,0,0,0,6.37-6A5.79,5.79,0,0,0,45.54,62.91Z"/><path class="cls-1" d="M75.86,68a31.71,31.71,0,0,0-12-5.72,8.24,8.24,0,0,0-.07,1,7,7,0,0,0,6.9,7.11A6.82,6.82,0,0,0,75.86,68Z"/><path class="cls-1" d="M79.41,74.58A2.45,2.45,0,1,1,76.76,77,2.55,2.55,0,0,1,79.41,74.58Z"/></g></g></svg>