<svg xmlns="http://www.w3.org/2000/svg" viewBox="0 0 147.55 92.32"><defs><style>.cls-1,.cls-3,.cls-4,.cls-5{fill:#fff;}.cls-1,.cls-2,.cls-3,.cls-4,.cls-5{stroke:#000;}.cls-1,.cls-2,.cls-3,.cls-4{stroke-linecap:round;stroke-linejoin:round;}.cls-1,.cls-2{stroke-width:0.47px;}.cls-1,.cls-2,.cls-4,.cls-5{fill-rule:evenodd;}.cls-2{fill:none;}.cls-3,.cls-4,.cls-5{stroke-width:0.48px;}.cls-5{stroke-miterlimit:22.93;}</style></defs><title>3.2</title><g id="Слой_2" data-name="Слой 2"><g id="_1" data-name="1"><path class="cls-1" d="M147.11,71.57s1.38,6.63-10.87,6.41-120.92-1.6-120.92-1.6-8,.11-12.68-5.77S.3,55.45,8.07,47.87,25.59,36,32.63,33.54a4.47,4.47,0,0,0,2-1.69C35.88,30,51.86,9.1,51.86,9.1S57,3,74.45,1s39.1.43,47.3,3S135.82,14.33,139,26.83,141.89,45,141.89,45,148.56,57.61,147.11,71.57Z"/><path class="cls-1" d="M58.29,76.93l-43-.55a18.82,18.82,0,0,1-8.14-2.07c0-.29,0-.58,0-.87a25.69,25.69,0,0,1,51.37,0A25,25,0,0,1,58.29,76.93Z"/><path class="cls-1" d="M53.82,76.88l-38.5-.5A17.63,17.63,0,0,1,11.74,76a20.88,20.88,0,0,1-.15-2.51,21.26,21.26,0,0,1,42.51,0A21.68,21.68,0,0,1,53.82,76.88Z"/><path class="cls-1" d="M140.82,77.67a23.56,23.56,0,0,1-4.58.31c-4.8-.08-24.39-.35-46.45-.64-.06-.88-.08-1.78-.06-2.69.36-15.23,12.46-27.27,27-26.89S142.79,60.81,142.42,76c0,.32,0,.63,0,.94A16.31,16.31,0,0,1,140.82,77.67Z"/><path class="cls-1" d="M137.74,78c-.48,0-1,0-1.5,0-4.46-.08-21.74-.31-41.89-.57a25.69,25.69,0,0,1-.08-2.64c.3-12.6,10.31-22.57,22.35-22.25s21.56,10.79,21.26,23.39C137.86,76.61,137.81,77.3,137.74,78Z"/><path class="cls-1" d="M141.89,44.88V45a54.69,54.69,0,0,1,5.26,18.72c-5.91-2.9-9.39-7.14-7.71-13A19.93,19.93,0,0,1,141.89,44.88Z"/><path class="cls-1" d="M2.23,70.06C-1.49,64.75.12,56.94,6,50.07c2-.52,4.87-1,6,.25,1.86,2-2.93,5.13-5.76,13.73C5,68,3.58,69.67,2.23,70.06Z"/><path class="cls-2" d="M12,50.11s24.29-11.32,27.7-11.43,90.45,0,90.45,0,6.6-.75,11.93,6.62"/><path class="cls-1" d="M54.39,7.07c3-2,9.13-4.82,20.06-6.09,17.47-2,39.1.43,47.3,3a19.09,19.09,0,0,1,5.54,2.78A57.12,57.12,0,0,0,116,5.47s-42.62.21-52.1.32A32.74,32.74,0,0,0,54.39,7.07Z"/><path class="cls-1" d="M35,31.31C37.77,27.56,51.86,9.1,51.86,9.1L52,9l.4,0c.58,0,2.22.3.88,1.76-4.39,4.79-9.76,13.1-14,20.53C38.71,32.29,38,33.15,35,31.31Z"/><path class="cls-2" d="M32.9,33.24a13.72,13.72,0,0,1,6,5.55"/><path class="cls-2" d="M38.22,48.4l.64-9.4S40.14,28,59.53,6.11"/><path class="cls-2" d="M86.28,5.63,82.76,38.57s-5,19.79-.73,38.95"/><path class="cls-2" d="M120.15,5.58s6.18,4.69,9.38,17.08,1.92,16.13,1.92,16.13a16.78,16.78,0,0,1-.32,14"/><path class="cls-1" d="M129.92,9c4,4,7.08,10,9.09,17.85.59,2.29,1.06,4.35,1.43,6.19-1.89,0-3.42-.44-3.64-1.49-1.26-5.88-3.47-15.47-7.54-20.8C128.19,9.33,129.26,9.05,129.92,9Z"/><path class="cls-1" d="M88.84,9.74a2.7,2.7,0,0,1,3-2.4H116s2.13-.22,4.21,2.24,6.34,12.17,6.93,17.19-.64,8.44-6,8.55-28.24-.16-28.88-.16-5.59-.54-5.32-5.29C87.3,23,88.37,16.63,88.84,9.74Zm-6.19,0s.36-2.4-2.46-2.4H63.67S61.59,7.12,59,9.58,49.15,22.4,46.52,27.36s-2,7.85,3.32,8,23.26-.16,23.9-.16,5.71-.54,6.47-5.29C81.32,23,81.63,16.63,82.65,9.74Z"/><path class="cls-1" d="M72.48,47.12c3.08,0,5.59-1.23,5.59-2.72s-2.51-2.73-5.59-2.73-5.6,1.23-5.6,2.73S69.4,47.12,72.48,47.12Z"/><path class="cls-1" d="M124.68,47.12c3.08,0,5.59-1.23,5.59-2.72s-2.51-2.73-5.59-2.73-5.59,1.23-5.59,2.73S121.6,47.12,124.68,47.12Z"/><circle class="cls-3" cx="33.1" cy="73.44" r="18.63" transform="translate(-7.08 3.62) rotate(-5.65)"/><path class="cls-4" d="M33.1,91.1A17.66,17.66,0,1,0,15.44,73.44,17.7,17.7,0,0,0,33.1,91.1Z"/><circle class="cls-3" cx="33.1" cy="73.44" r="11.79"/><circle class="cls-3" cx="33.1" cy="73.44" r="4.6"/><path class="cls-4" d="M33.1,82.32a8.88,8.88,0,1,0-8.88-8.88A8.9,8.9,0,0,0,33.1,82.32Z"/><path class="cls-5" d="M36.52,72.94a.69.69,0,1,0-.69-.69A.69.69,0,0,0,36.52,72.94Z"/><path class="cls-5" d="M29.51,72.94a.69.69,0,1,0-.69-.69A.69.69,0,0,0,29.51,72.94Z"/><path class="cls-5" d="M33,70.32a.69.69,0,1,0-.7-.69A.69.69,0,0,0,33,70.32Z"/><path class="cls-5" d="M30.85,77.19a.69.69,0,1,0-.69-.69A.69.69,0,0,0,30.85,77.19Z"/><path class="cls-5" d="M35.18,77.19a.69.69,0,1,0-.69-.69A.69.69,0,0,0,35.18,77.19Z"/><circle class="cls-3" cx="116.07" cy="73.44" r="18.63" transform="translate(24.99 176.25) rotate(-80.78)"/><path class="cls-4" d="M116.07,91.1A17.66,17.66,0,1,0,98.41,73.44,17.69,17.69,0,0,0,116.07,91.1Z"/><circle class="cls-3" cx="116.07" cy="73.44" r="11.79" transform="translate(-10.27 19.54) rotate(-9.22)"/><circle class="cls-3" cx="116.07" cy="73.44" r="4.6"/><path class="cls-4" d="M116.07,82.32a8.88,8.88,0,1,0-8.87-8.88A8.9,8.9,0,0,0,116.07,82.32Z"/><path class="cls-5" d="M119.5,72.94a.69.69,0,1,0-.7-.69A.69.69,0,0,0,119.5,72.94Z"/><path class="cls-5" d="M112.49,72.94a.69.69,0,1,0-.69-.69A.69.69,0,0,0,112.49,72.94Z"/><path class="cls-5" d="M116,70.32a.69.69,0,1,0-.69-.69A.69.69,0,0,0,116,70.32Z"/><path class="cls-5" d="M113.83,77.19a.69.69,0,1,0-.69-.69A.69.69,0,0,0,113.83,77.19Z"/><path class="cls-5" d="M118.16,77.19a.69.69,0,1,0-.69-.69A.69.69,0,0,0,118.16,77.19Z"/></g></g></svg>