<svg xmlns="http://www.w3.org/2000/svg" viewBox="0 0 69.69 98.34"><defs><style>.cls-1,.cls-2{fill:#fff;stroke:#2b2a29;stroke-linecap:round;stroke-linejoin:round;stroke-width:0.47px;}.cls-1{fill-rule:evenodd;}</style></defs><title>5.2</title><g id="Слой_2" data-name="Слой 2"><g id="_1" data-name="1"><path class="cls-1" d="M34.84,98.11c19.07,0,34.62-8.39,34.62-18.69S53.91,60.74,34.84,60.74.23,69.13.23,79.42,15.78,98.11,34.84,98.11Z"/><ellipse class="cls-2" cx="34.84" cy="69.09" rx="31.04" ry="16.76"/><ellipse class="cls-2" cx="34.84" cy="58.76" rx="27.46" ry="14.83"/><path class="cls-1" d="M34.84,35.53c13.2,0,23.89,5.77,23.89,12.89S48,61.32,34.84,61.32,11,55.54,11,48.42,21.65,35.53,34.84,35.53Z"/><path class="cls-1" d="M34.84,27.12c11.22,0,20.32,4.91,20.32,11s-9.1,11-20.32,11-20.31-4.91-20.31-11S23.63,27.12,34.84,27.12Z"/><path class="cls-1" d="M34.84,18.72c9.25,0,16.74,4.05,16.74,9s-7.49,9-16.74,9-16.73-4-16.73-9S25.6,18.72,34.84,18.72Z"/><path class="cls-1" d="M46.57,20.66C44.39,23,40,24.53,34.84,24.53S25.1,22.89,23,20.5c-1.7-1.9-1.41-4.18-.56-6.35C24.21,9.6,29.85,2.46,30.8,2h0a5.56,5.56,0,0,1,8.06,0L39,2c.95.49,6.59,7.63,8.38,12.18C48.21,16.38,48.36,18.77,46.57,20.66Z"/></g></g></svg>