<svg xmlns="http://www.w3.org/2000/svg" viewBox="0 0 83.37 98.74"><defs><style>.cls-1,.cls-2{fill:#fff;stroke:#2b2a29;stroke-linecap:round;stroke-linejoin:round;stroke-width:0.47px;}.cls-1{fill-rule:evenodd;}</style></defs><title>2.2</title><g id="Слой_2" data-name="Слой 2"><g id="_1" data-name="1"><path class="cls-1" d="M77.46,49.37A9.46,9.46,0,0,1,65.11,52,9.45,9.45,0,0,1,46.55,55a9.42,9.42,0,0,1-5.25,2.94L15.74,97c-1.44,2-4.82,2-7.5.08L3.13,93.36C.45,91.42-.55,88.19.9,86.2L30.18,49.81a9.41,9.41,0,0,1,1.17-5.9,9.45,9.45,0,0,1-2.93-18.56,9.45,9.45,0,0,1,11-15.2A9.45,9.45,0,0,1,58,7.21a9.45,9.45,0,0,1,15.2,11.05,9.44,9.44,0,0,1,2.94,18.55,9.46,9.46,0,0,1,1.31,12.56ZM64.18,16.83,42.4,46.8a18.57,18.57,0,0,0,21.78-30ZM40.38,45.34l21.78-30a18.57,18.57,0,0,0-21.78,30Zm32.47-7.27a21.84,21.84,0,0,1-7.56,10.41l1.39.8A6.3,6.3,0,0,0,74,39.15l-1.19-1.08Zm.93-3.88,1.55-.42a6.3,6.3,0,0,0-2-12.37l-1.6.08a21.85,21.85,0,0,1,2,12.71Zm-4.1-16.11.81-1.39A6.31,6.31,0,0,0,60.35,9.32l-1.08,1.19a21.77,21.77,0,0,1,10.41,7.57ZM55.39,9.58,55,8A6.3,6.3,0,0,0,42.6,10l.08,1.61a21.79,21.79,0,0,1,12.71-2Zm-16.11,4.1-1.39-.8A6.3,6.3,0,0,0,30.53,23l1.19,1.08a21.79,21.79,0,0,1,7.56-10.41ZM30.79,28l-1.56.42a6.3,6.3,0,0,0,2,12.37l1.61-.08a21.78,21.78,0,0,1-2-12.71ZM49.17,52.58l.42,1.55a6.3,6.3,0,0,0,12.38-2l-.09-1.6a21.85,21.85,0,0,1-12.71,2ZM10.89,88.06a2.6,2.6,0,1,0,.58,3.64A2.61,2.61,0,0,0,10.89,88.06Z"/><circle class="cls-2" cx="52.28" cy="31.08" r="16.56" transform="translate(-7.84 21.85) rotate(-22)"/></g></g></svg>