<svg xmlns="http://www.w3.org/2000/svg" viewBox="0 0 86.15 140.71"><defs><style>.cls-1{fill:#d6b880;}.cls-1,.cls-10,.cls-11,.cls-12,.cls-13,.cls-2,.cls-3,.cls-4,.cls-5,.cls-6,.cls-7,.cls-8,.cls-9{stroke:#2b2a29;stroke-linecap:round;stroke-linejoin:round;stroke-width:0.47px;}.cls-1,.cls-10,.cls-11,.cls-13,.cls-2,.cls-3,.cls-4,.cls-5,.cls-6,.cls-7,.cls-8,.cls-9{fill-rule:evenodd;}.cls-2{fill:none;}.cls-3{fill:#fc9;}.cls-4{fill:#cffa8e;}.cls-5{fill:#f66;}.cls-6{fill:#c30;}.cls-7{fill:#ff9;}.cls-8{fill:#ff2825;}.cls-9{fill:#fff;}.cls-10{fill:#2b2a29;}.cls-11{fill:#72d3e0;}.cls-12{fill:#fefefe;}.cls-13{fill:#ff6;}</style></defs><title>2.1</title><g id="Слой_2" data-name="Слой 2"><g id="_1" data-name="1"><path class="cls-1" d="M43.75,17.55c-3-.51-9.34-1-15.16,2.15C20.68,24,19.13,32.86,19.13,36.89s.35,3.59-1.72,6S9.16,53.52,11.05,64.59s.77,15.23-2,19.12-5.76,2.91-5.76,2.91.77,2.54,4.81,3,5.51-.22,4.9.3A7.09,7.09,0,0,0,11.3,97a5.46,5.46,0,0,0,4.3,4s8.25.53,8.08-1.48c-.32-3.92,36.31-4.22,39.46-.52,1.54,1.82,8.77,2,8.77,2a5.44,5.44,0,0,0,4.29-4,7,7,0,0,0-1.72-7.1c-.6-.52.86.15,4.9-.3s4.82-3,4.82-3-3,1-5.76-2.91-4-5.65-2.15-16.72S72.16,45.27,70.1,42.87s-1.72-1.94-1.72-6S66.83,24,58.92,19.7C53.1,16.51,46.72,17,43.75,17.55Z"/><path class="cls-2" d="M19.15,39.9c.23,2.51,1.05,8.76-1,14.6M15.34,97s-.94-3.52,2.76-7.5S22.74,81.84,23,77.08M15.34,54.66s-3.61,8.05-.25,15.65S19,86.1,13.2,89.68M32.72,25.09s-10.49,4.69-8.26,16.25.86,18.45-2.23,24.54"/><path class="cls-2" d="M68.36,39.9c-.23,2.51-1,8.76,1,14.6M72.16,97s1-3.52-2.75-7.5-4.64-7.66-4.9-12.42m7.65-22.42s3.61,8.05.26,15.65S68.55,86.1,74.31,89.68M54.79,25.09S65.28,29.78,63,41.34s-.86,18.45,2.24,24.54"/><path class="cls-3" d="M26.66,96.61a33.42,33.42,0,0,0,.47,7.45c.71,3.13.79,3.44-.08,4.7s-2,7-.8,10.45c.45.46,2.47,2.26,6.6,2.09,4.74-.2,6.82-1.41,6.82-1.41h0c1.16-6.13.54-7.61.46-9s2.27-4.62,2.43-7.21S42.57,92.85,26.66,96.61Z"/><path class="cls-4" d="M25.33,126.12a19.26,19.26,0,0,0-.35-3.06c-.32-1.45-.51-2.39,0-3.17a1.51,1.51,0,0,1,1.21-.79s2,2.39,6.7,2.2,6.82-1.41,6.82-1.41,1.29.15.59,2-.35,5.1,0,6.82-2.55,5.65-8.94,4.35S24.82,130.08,25.33,126.12Z"/><path class="cls-5" d="M25.32,125.9a13.62,13.62,0,0,0-2,5.86c-.27,3.68,1.25,9,9.84,8.7,8.27-.3,10-5.49,7.11-11.51.11,1.81-2.81,5.39-9,4.14-6.38-1.29-6.5-3-6-7C25.33,126.12,25.33,126,25.32,125.9Z"/><path class="cls-6" d="M24.32,136.72c1.26,2.2,3.86,3.92,8.85,3.74,4-.15,6.45-1.43,7.61-3.4-1.47,1.29-4.28,2.71-9.06,2.18C27.55,138.79,25.4,137.62,24.32,136.72Z"/><path class="cls-5" d="M25.31,125.73c-.55-.23-.74-1.83-.27-2.3,7.88-1.39,12.88.47,14.85,1.67.42.35.51,2.59.2,2.71C35.29,124.47,26.52,125.56,25.31,125.73Z"/><path class="cls-3" d="M59.46,96.61a32.77,32.77,0,0,1-.47,7.45c-.7,3.13-.78,3.44.08,4.7s2,7,.8,10.45c-.45.46-2.46,2.26-6.6,2.09-4.74-.2-6.82-1.41-6.82-1.41h0c-1.16-6.13-.54-7.61-.46-9s-2.27-4.62-2.43-7.21S43.55,92.85,59.46,96.61Z"/><path class="cls-4" d="M60.79,126.12a18.6,18.6,0,0,1,.36-3.06c.31-1.45.51-2.39,0-3.17A1.52,1.52,0,0,0,60,119.1s-2,2.39-6.7,2.2-6.82-1.41-6.82-1.41-1.29.15-.59,2,.36,5.1,0,6.82,2.55,5.65,8.94,4.35S61.3,130.08,60.79,126.12Z"/><path class="cls-5" d="M60.8,125.9a13.62,13.62,0,0,1,2,5.86c.28,3.68-1.25,9-9.83,8.7-8.28-.3-10-5.49-7.12-11.51-.1,1.81,2.81,5.39,9,4.14,6.39-1.29,6.5-3,6-7A2,2,0,0,0,60.8,125.9Z"/><path class="cls-6" d="M61.8,136.72c-1.25,2.2-3.86,3.92-8.84,3.74-4-.15-6.46-1.43-7.62-3.4,1.47,1.29,4.28,2.71,9.07,2.18C58.57,138.79,60.72,137.62,61.8,136.72Z"/><path class="cls-5" d="M60.81,125.73c.55-.23.74-1.83.27-2.3-7.88-1.39-12.88.47-14.85,1.67-.41.35-.51,2.59-.2,2.71C50.84,124.47,59.61,125.56,60.81,125.73Z"/><path class="cls-3" d="M61.07,61.89a13.52,13.52,0,0,1,4.31,4.39c2.19,3.29,2.19,5.8,2.9,5.64a4.88,4.88,0,0,1,5.21,3c1.45,3.22.47,7.53-3.45,7.41s-7.64-2.74-8.62-2.78-5.61-5.1-7.25-10.78S57.89,60.05,61.07,61.89Z"/><path class="cls-3" d="M71.06,80.62s.19-2.27.66-2.62.91-1.1.67-1.57-.9-3.25,1.06-3.6,3.17-.71,4.11-1.69,2.43-.55,2.51.51a1.79,1.79,0,0,1-1,1.92c-.67.43-.47.94-.47.94a47,47,0,0,1,5.6,1.57c2.12.82,2.28,2.39.36,2.35a13.64,13.64,0,0,1-3.65-.63l-.31.67s5,1.53,4.54,3.37-1.52.86-3.33,0a7.87,7.87,0,0,0-2.15-.9s4,3.64,2.82,4.86-2.94-1.84-3.72-2.08-.59.16-.59.16,2.19,2.94.78,3.72-3-2.82-3-2.82S71.18,84,71.06,80.62Z"/><path class="cls-2" d="M78.46,75.14A5.06,5.06,0,0,1,76,77.41"/><path class="cls-3" d="M25.09,61.89a13.41,13.41,0,0,0-4.31,4.39c-2.2,3.29-2.2,5.8-2.9,5.64a4.87,4.87,0,0,0-5.21,3c-1.45,3.22-.47,7.53,3.44,7.41s7.65-2.74,8.62-2.78,5.61-5.1,7.25-10.78S28.26,60.05,25.09,61.89Z"/><path class="cls-3" d="M15.1,80.62s-.2-2.27-.67-2.62-.9-1.1-.67-1.57.9-3.25-1-3.6-3.18-.71-4.12-1.69-2.43-.55-2.51.51a1.81,1.81,0,0,0,1,1.92c.67.43.47.94.47.94a47.52,47.52,0,0,0-5.6,1.57c-2.12.82-2.27,2.39-.35,2.35a13.52,13.52,0,0,0,3.64-.63l.31.67S.48,80,1,81.84s1.53.86,3.33,0a7.87,7.87,0,0,1,2.15-.9s-4,3.64-2.82,4.86,2.94-1.84,3.73-2.08.58.16.58.16-2.19,2.94-.78,3.72,3-2.82,3-2.82S15,84,15.1,80.62Z"/><path class="cls-2" d="M7.69,75.14a5.12,5.12,0,0,0,2.43,2.27"/><path class="cls-7" d="M52.76,57.74l3.37,2.9a4.69,4.69,0,0,1,5.72-1.57c3.68,1.49,3.09,6,3.09,6l2.9,2s.55,1.9-.74,1.66-1.9.57-1.55,1.43,0,2-1.29,1.69-1.78-.18-1.43.88-.2,2-1.26,1.68-1.54,0-1.5.94A1.44,1.44,0,0,1,58,76.55a4.84,4.84,0,0,1-1.25-1.88l-1.49-.75.43,2.86a29.77,29.77,0,0,1,9.4,9.09c4,6.12,4.7,10.82,4.7,10.82s-.94,1.33-1.88.78-1.25-.08-1.33,1.1-.94,2.59-5.8,3.76-6.74-2.27-8.78.39-2.9,3.06-5.87,3.06-3.06-1.33-5.8-1.18-4.55,1.26-6.19.08-3.53-3.05-5.57-2S24,103.12,22,102a8.23,8.23,0,0,1-3-2.67l.59-1.19c-.13-.87-.47-1.17-1.29-.69s-1.89-.78-1.89-.78A30.29,30.29,0,0,1,21.1,85.87a29.77,29.77,0,0,1,9.4-9.09l.43-2.86-1.49.75a4.84,4.84,0,0,1-1.25,1.88,1.44,1.44,0,0,1-2.1-1.14c0-.9-.45-1.29-1.51-.94s-1.6-.63-1.25-1.68-.18-1.24-1.43-.88-1.65-.82-1.29-1.69-.26-1.66-1.55-1.43-.74-1.66-.74-1.66l2.89-2s-.58-4.53,3.1-6A4.69,4.69,0,0,1,30,60.64l3.37-2.9,9.68.6Z"/><path class="cls-4" d="M30.16,59.93S32.55,65,37.4,66c3.48.7,5.07-1.2,5.68-3.08.61,1.88,2.2,3.78,5.67,3.08C53.61,65,56,59.93,56,59.93c.2-1.09-1.64-2.66-2.54-3s-8.69,1.52-10.38,3.35c-1.69-1.83-9.57-3.7-10.38-3.35S30,58.84,30.16,59.93Z"/><path class="cls-2" d="M21.72,65.66s1.41,3.91,7.29,7.83M64.2,65.73a33.54,33.54,0,0,1-6.82,7.92M31.28,77a24.28,24.28,0,0,0,23.44-.08M31.44,74.8a24,24,0,0,0,23.12-.07"/><path class="cls-2" d="M36.22,79.84s-5.33,7.6-8.07,21.63M48.37,79.92s5.8,4.7,9,18.1M45.63,80.86a62.89,62.89,0,0,1,2.19,12m-11.6-2.59A88.77,88.77,0,0,0,34,103M20.47,97.08S23,89.32,27.92,83.92M66.08,96.06s-2.74-7.83-8.31-12.61"/><path class="cls-3" d="M26.94,38.1c1,3,1.26,4,.93,5-.26.44-1.9,5.71.88,10s8.15,4.2,11.32,6.21a6.44,6.44,0,0,0,7.37,0c3.2-1.94,8.54-2,11.32-6.21s1.1-9.58.83-10,0-1.75,1.06-4.75.36-8.41.36-8.41c-3.6-3.6-11.5-5.58-17.26-4.91a32.1,32.1,0,0,0-7.33,0C32,25.27,24,29.5,26.94,38.1Z"/><path class="cls-8" d="M40.82,53.15A9.48,9.48,0,0,0,42,52a1,1,0,0,1,1.42-.13.79.79,0,0,0,1,0,1,1,0,0,1,1.42.13A9.77,9.77,0,0,0,47,53.15,3.12,3.12,0,0,1,40.82,53.15Z"/><path class="cls-9" d="M40.49,53.23c-.53.16-.83-.11-.55-.45s.43.19.86.24,1.28.38,1.82.1a1.09,1.09,0,0,1,.94-.06,1.46,1.46,0,0,0,.69,0,1.09,1.09,0,0,1,.94.06c.54.28,1.4,0,1.82-.1s.58-.57.86-.24,0,.61-.55.45a5.42,5.42,0,0,0-2.18.24c-.23.05-.48.49-.92.65a.86.86,0,0,1-.63,0c-.44-.16-.69-.6-.92-.65A5.4,5.4,0,0,0,40.49,53.23Z"/><path class="cls-2" d="M42.17,48.46c.89.79,3.74.88,4.11-1.21"/><path class="cls-1" d="M39.76,18.11s-7.31.26-11.09,4.39c-5,10.54.93,11,6.57,10.87a12.5,12.5,0,0,1,7.87,2.71l-.86-3a23.79,23.79,0,0,0,10.44,4.42c6.58,1.16,7.65,4.94,7.65,4.94s5.42-13.45-4-20.32S41.48,17.94,39.76,18.11Z"/><path class="cls-10" d="M32.52,36.21a8.92,8.92,0,0,1,2.92-.14c1.54.19,1.14-1.54-.49-1.59S31.67,36.21,32.52,36.21Z"/><path class="cls-11" d="M32.61,41.67a3.43,3.43,0,0,0-.14,1,3.29,3.29,0,0,0,6.57,0,3,3,0,0,0-.13-.91,4.48,4.48,0,0,0-3.2-1.53A4,4,0,0,0,32.61,41.67Z"/><path class="cls-10" d="M35.73,44.42a1.67,1.67,0,1,0-1.67-1.67A1.67,1.67,0,0,0,35.73,44.42Z"/><circle class="cls-12" cx="37.04" cy="42.85" r="0.67"/><path class="cls-2" d="M39.6,42.52c-.11-.13-1.55-2.32-3.81-2.32A4.43,4.43,0,0,0,32.29,42a1.77,1.77,0,0,1-2.27.14m2.51-.38s-.66.18-1.72-.68M33.38,41A2.17,2.17,0,0,1,32,40.11m2.49.29a3.44,3.44,0,0,1-1.32-1.08"/><path class="cls-11" d="M55,41.67a3.43,3.43,0,0,1,.14,1,3.29,3.29,0,0,1-6.57,0,3.39,3.39,0,0,1,.13-.91,4.49,4.49,0,0,1,3.21-1.53A4,4,0,0,1,55,41.67Z"/><path class="cls-10" d="M51.84,44.42a1.67,1.67,0,1,0-1.67-1.67A1.67,1.67,0,0,0,51.84,44.42Z"/><circle class="cls-12" cx="50.53" cy="42.85" r="0.67"/><path class="cls-2" d="M48,42.52c.11-.13,1.55-2.32,3.81-2.32A4.43,4.43,0,0,1,55.28,42a1.77,1.77,0,0,0,2.27.14M55,41.79s.66.18,1.72-.68M54.19,41a2.15,2.15,0,0,0,1.39-.86m-2.48.29a3.44,3.44,0,0,0,1.31-1.08"/><path class="cls-2" d="M42.28,32.94s-3.35-4.38-3.35-8.34m5.37-5.46s6.19,1.81,10.06,9.8m-11.52-9.8a40.56,40.56,0,0,0,5.42,6"/><path class="cls-7" d="M47.53,12C49.16,11.6,50,8.6,54,5s15.2-6.71,18-3.29-.17,6.53,2,9.15,4.28,8.75.52,12.17-3.21,3.15-3.8,5.3-5,1.83-11.42-2.24c-2.08-1.32-5.6-5.92-8.4-6.25C46.61,19.35,45.61,15.12,47.53,12Z"/><path class="cls-2" d="M49.14,15.89s4.13-4.54,9.83-2.6"/><path class="cls-4" d="M54.28,4.72a19.14,19.14,0,0,1,5.2-2.83l.3.09a4.48,4.48,0,0,1,2.76,5.65A4.34,4.34,0,0,1,57,10.45a4.48,4.48,0,0,1-2.77-5.64l0-.09ZM72.77,3c1.31,2.91-.71,5.57,1.16,7.85.19.23.38.5.57.78a4.24,4.24,0,0,1-2.92.06,4.48,4.48,0,0,1-2.77-5.64,4.38,4.38,0,0,1,4-3Zm.28,21.32c-2.23,2.1-1.9,2.16-2.4,4-.27,1-1.34,1.45-3,1.28a4.54,4.54,0,0,1,.12-2.39,4.35,4.35,0,0,1,5.32-2.89ZM56.79,24c-1.87-1.79-4.08-3.94-6-4.16a5.71,5.71,0,0,1-1.53-.39,4.32,4.32,0,0,1,5.28-2.24,4.5,4.5,0,0,1,2.77,5.65A4.84,4.84,0,0,1,56.79,24Zm10.9-10.44a4.48,4.48,0,0,1,2.77,5.64A4.35,4.35,0,0,1,64.93,22a4.48,4.48,0,0,1-2.76-5.65A4.34,4.34,0,0,1,67.69,13.56Z"/><path class="cls-7" d="M40,12c-1.62-.39-2.48-3.39-6.42-7s-15.2-6.71-18-3.29.17,6.53-2,9.15S9.29,19.61,13.06,23s3.21,3.15,3.8,5.3,5,1.83,11.42-2.24c2.08-1.32,5.59-5.92,8.4-6.25C40.9,19.35,41.9,15.12,40,12Z"/><path class="cls-2" d="M38.37,15.89s-4.13-4.54-9.83-2.6"/><path class="cls-4" d="M33.23,4.72A19.29,19.29,0,0,0,28,1.89l-.3.09A4.5,4.5,0,0,0,25,7.63a4.35,4.35,0,0,0,5.53,2.82,4.48,4.48,0,0,0,2.77-5.64l0-.09ZM14.74,3c-1.31,2.91.71,5.57-1.16,7.85-.19.23-.39.5-.58.78a4.27,4.27,0,0,0,2.93.06,4.47,4.47,0,0,0,2.76-5.64,4.36,4.36,0,0,0-4-3Zm-.28,21.32c2.22,2.1,1.9,2.16,2.4,4,.27,1,1.34,1.45,3,1.28a4.54,4.54,0,0,0-.11-2.39,4.35,4.35,0,0,0-5.32-2.89ZM30.72,24c1.87-1.79,4.07-3.94,6-4.16a5.71,5.71,0,0,0,1.53-.39,4.33,4.33,0,0,0-5.28-2.24,4.5,4.5,0,0,0-2.77,5.65A4.17,4.17,0,0,0,30.72,24ZM19.81,13.56a4.49,4.49,0,0,0-2.76,5.64A4.35,4.35,0,0,0,22.58,22a4.49,4.49,0,0,0,2.76-5.65A4.35,4.35,0,0,0,19.81,13.56Z"/><path class="cls-13" d="M39.15,11.62a11.33,11.33,0,0,1,4.5-.64,15.43,15.43,0,0,1,4.63.77c.37,1.22.93,6.17-.17,7.52-.57.71-8.4,1.15-9.17-.17S38.27,12.53,39.15,11.62Z"/></g></g></svg>