<svg xmlns="http://www.w3.org/2000/svg" viewBox="0 0 89.85 116.95"><defs><style>.cls-1{fill:#a86439;}.cls-1,.cls-2,.cls-3,.cls-4,.cls-5,.cls-6,.cls-7,.cls-8,.cls-9{stroke:#2b2a29;stroke-linecap:round;stroke-linejoin:round;stroke-width:0.47px;}.cls-1,.cls-2,.cls-3,.cls-4,.cls-6,.cls-8,.cls-9{fill-rule:evenodd;}.cls-2{fill:#5c371f;}.cls-3,.cls-7{fill:#ebaf73;}.cls-4{fill:#2b2a29;}.cls-5,.cls-6{fill:#fefefe;}.cls-8{fill:#75d400;}.cls-9{fill:none;}</style></defs><title>1.1</title><g id="Слой_2" data-name="Слой 2"><g id="_1" data-name="1"><path class="cls-1" d="M38.92,52.75S32.2,51.8,26.74,55s-7.21,1.26-12.86-.1S3.75,53.75,2.19,59.59s3.9,12.08,13.15,12.47,12.76-3.11,15-4.38S40.57,54.63,38.92,52.75Z"/><path class="cls-1" d="M28.1,78.49s-3.5,3.8-8.28,2.93-2.34-8-11.2-8.48S.05,80.83.34,87.75s7.4,17.83,18.9,13.54a80.87,80.87,0,0,0,18.31-9.35Z"/><path class="cls-2" d="M37.46,53.55S26.25,59.4,26,74.21s9.26,21.33,20.65,21.72,25.82-4.38,26.5-19.87-6.43-23.29-11.69-24S40.77,50.73,37.46,53.55Z"/><path class="cls-1" d="M75.55,58.62S68.83,52,60.84,54.43s-1.76,10.81,1.95,13.74,7,5.84,7,10.32,2.63,13.25,10.13,12.67S95.13,77.42,75.55,58.62Z"/><path class="cls-3" d="M.48,80a42.62,42.62,0,0,0-.14,7.76h0c0,.11,0,.22,0,.33a26.61,26.61,0,0,0,1.66,5.83A15.69,15.69,0,0,0,8.78,101H9c3.56,0,5.49-5.77,4.31-12.9s-5-12.9-8.58-12.9C2.68,75.18,1.18,77.06.48,80Z"/><path class="cls-3" d="M9.54,68.46c2.93,0,5.31-2.78,5.31-6.19s-2.38-6.18-5.31-6.18-5.31,2.78-5.31,6.18S6.62,68.46,9.54,68.46Z"/><path class="cls-3" d="M38.31,5c-1.74-2.28-6.7-7.23-15-3.24-9.43,4.54-6,17.06.18,19.12C24.63,15.37,28,8.25,38.31,5Z"/><path class="cls-2" d="M32,7.92c-1.35-1.3-4.08-3.19-7.1-1.16-3.31,2.21-2,7,.24,9A19.09,19.09,0,0,1,32,7.92Z"/><path class="cls-1" d="M18.65,40.22a13.34,13.34,0,0,1,2.15-5c1.85-2.82,2-4,2.14-8.86s1-18.71,18.9-22.31S71.94,9,77.3,24.73s.58,30.79-13.15,32.64-38-2.34-42.28-7.31S18.07,41.68,18.65,40.22Z"/><path class="cls-3" d="M69.26,15.77c-2.58-2.83-4.23-5-.68-7.16s13.84-5.31,19,2.87S87.09,25.8,84.31,27.7s-8.2,3.41-8.62,2.14C74.06,24.92,73,19.9,69.26,15.77Z"/><path class="cls-2" d="M69.31,15.82a8.48,8.48,0,0,1,7.89-4.44c6.34,0,8.82,9.21,3.22,12.77a8.37,8.37,0,0,1-6,1.22A28.8,28.8,0,0,0,69.31,15.82Z"/><path class="cls-4" d="M51.71,3.32q.85.06,1.68.15a.43.43,0,0,1-.37.47h0l-.84.18h0a.47.47,0,0,1-.42-.81ZM34.94,36.81a.46.46,0,0,0,.71.6h0a8.23,8.23,0,0,0,.57-.75l0,0a.46.46,0,0,0-.77-.51l0,0a8.16,8.16,0,0,1-.5.66Zm1.5-3.1a.47.47,0,0,0,.92.15v0a6.69,6.69,0,0,0,.09-.9v-.06a.47.47,0,0,0-.93,0v.06a5.16,5.16,0,0,1-.08.78v0Zm-.26-3.55A.47.47,0,0,0,37.1,30c-.05-.3-.09-.61-.13-.91a.47.47,0,0,0-.93.12c0,.31.09.62.14.94Zm-.34-3.79a.47.47,0,0,0,.93,0h0v-.92a.47.47,0,0,0-.93,0v.95Zm.24-3.79a.46.46,0,0,0,.92.13c0-.31.09-.61.14-.91a.47.47,0,0,0-.92-.16c0,.3-.1.61-.14.91v0Zm.79-3.72a.46.46,0,0,0,.89.26l.27-.88a.46.46,0,0,0-.88-.28c-.1.3-.19.6-.28.9Zm1.28-3.57a.47.47,0,0,0,.86.37c.12-.28.24-.56.37-.84a.46.46,0,0,0-.84-.39c-.14.29-.27.57-.39.86Zm1.69-3.39a.47.47,0,0,0,.81.46c.14-.26.3-.52.46-.78a.46.46,0,0,0-.78-.5c-.17.27-.34.55-.49.82Zm2.23-3.1a.46.46,0,0,0,.69.62h0l.6-.63,0,0a.47.47,0,0,0-.65-.67c-.23.22-.45.45-.67.69ZM45,6.27a.46.46,0,0,0,.53.76h0c.24-.16.49-.33.74-.48h0a.46.46,0,0,0-.49-.79h0q-.41.24-.78.51ZM48.3,4.41a.47.47,0,0,0,.36.86l.85-.34a.47.47,0,0,0-.33-.88C48.88,4.16,48.59,4.29,48.3,4.41Z"/><path class="cls-4" d="M48.05,37.1a2.85,2.85,0,1,0-2.7-2.85A2.78,2.78,0,0,0,48.05,37.1Z"/><ellipse class="cls-5" cx="49.01" cy="33.64" rx="0.89" ry="0.94"/><path class="cls-4" d="M28.2,35.46a2.52,2.52,0,1,0-2.39-2.52A2.47,2.47,0,0,0,28.2,35.46Z"/><path class="cls-6" d="M29.05,33.23a.83.83,0,0,0,0-1.66.83.83,0,0,0,0,1.66Z"/><ellipse class="cls-7" cx="40.96" cy="73.12" rx="12.96" ry="14.23"/><path class="cls-1" d="M67.46,83.27s-5.65-3.7-10.71,2.82-7.41,8.77-11.89,5.07-8-5-12.47-2-2.44,19.68,3.7,24.65,18.8,3.9,28.06-6.72S73.79,86.68,67.46,83.27Z"/><path class="cls-3" d="M30.05,95c-.53,6.25,1.76,15.39,6,18.86a11.81,11.81,0,0,0,3.24,1.84c3.08-.75,4.67-6.2,3.58-12.81-1.18-7.12-5-12.9-8.59-12.9C32.25,90,30.72,92,30.05,95Z"/><path class="cls-8" d="M42.8,57.61c.7-.09,1.2-1.32,3-2.66s6.71-2.14,7.73-.57-.36,2.75.42,3.95,1.41,3.88-.33,5.15-1.5,1.18-1.84,2.06-2.18.55-4.71-1.46c-.82-.65-2.09-2.75-3.26-3C42.07,60.67,41.84,58.84,42.8,57.61Z"/><path class="cls-9" d="M43.3,59.33a4.11,4.11,0,0,1,4.26-.65"/><path class="cls-8" d="M39.61,57.27C39,57,38.72,55.73,37.22,54s-6.1-3.51-7.44-2.2-.22,2.76-1.24,3.76-2.2,3.5-.77,5.11,1.21,1.47,1.36,2.41,2,1,4.91-.43c.94-.46,2.63-2.24,3.83-2.25C39.67,60.41,40.28,58.67,39.61,57.27Z"/><path class="cls-9" d="M38.76,58.84a4.14,4.14,0,0,0-4-1.54"/><path class="cls-8" d="M39.28,57.08A4.67,4.67,0,0,1,41.21,57a6.55,6.55,0,0,1,1.91.53c.1.53.12,2.64-.41,3.16-.27.28-3.59.11-3.86-.48A4.92,4.92,0,0,1,39.28,57.08Z"/><path class="cls-3" d="M32.88,38.61s8.37-2.38,12.71,1.61S50.46,51.72,44,54.44c-5.68,2.4-18.94,1-21.24-6.09C20.65,41.91,25.76,37.39,32.88,38.61Z"/><path class="cls-9" d="M31,41.58s-4.18,7.31,3.27,13.74"/><path class="cls-9" d="M30.24,49.11A6.4,6.4,0,0,0,36,50.74a4.43,4.43,0,0,0,4-3.66"/><path class="cls-2" d="M32.12,35.91S37.6,35.5,38,39.54s-5,4.67-8.18,3.16S26.71,35.91,32.12,35.91Z"/></g></g></svg>